<svg width="325" height="245" viewBox="0 0 325 245" fill="none" xmlns="http://www.w3.org/2000/svg">
<path opacity="0.18" d="M117.797 19.9048C109.256 27.8201 102.926 37.9946 93.8509 45.2747C78.5058 57.6079 57.6786 60.0601 39.6327 67.9111C27.6958 73.1048 16.3779 81.3337 11.0967 93.2368C6.83243 102.885 7.371 114.257 11.8041 123.788C13.9222 128.358 14.8634 133.385 14.5419 138.412C14.2204 143.438 12.6464 148.305 9.96335 152.567C3.39205 162.979 -0.570829 174.874 0.0682148 187.091C1.05692 205.88 15.3209 224.416 34.0541 226.144C40.4847 226.739 46.9475 225.433 53.3138 224.267C91.765 217.232 132.463 215.423 169.037 229.2C179.061 232.978 188.711 237.903 199.132 240.387C211.306 243.289 223.999 242.739 236.51 242.172C256.035 241.288 278.816 238.554 288.787 221.735C302.609 198.419 280.592 169.31 283.723 142.393C285.456 127.519 294.832 114.438 296.81 99.6084C298.956 83.4884 291.315 66.4478 277.851 57.3305C259.154 44.6717 233.299 47.743 213.995 36.0248C198.722 26.7508 188.224 8.62883 170.219 3.69635C152.559 -1.13563 130.65 8.00573 117.797 19.9048Z" fill="#D0E7FD"/>
<path opacity="0.11" d="M36.542 181.832C34.653 168.86 30.1476 156.37 28.3229 143.386C26.4982 130.401 27.7682 116.122 36.0838 106C41.5097 99.3953 49.3068 95.2749 56.9311 91.4117C63.7114 87.9746 70.6927 84.5496 78.2326 83.617C84.8803 82.813 91.5882 83.9587 98.2359 84.7547C110.743 86.2501 123.48 86.4471 135.895 84.3165C152.104 81.5025 167.429 75.0706 183.273 70.717C198.791 66.4317 214.152 64.2489 231.503 72.325C243.496 77.9127 252.346 89.5786 255.216 102.475C259.854 123.31 249.38 146.401 258.186 165.841C260.67 171.316 264.528 176.036 267.679 181.157C271.552 187.471 274.347 194.386 275.95 201.619C276.501 204.107 276.907 206.732 276.204 209.18C274.395 215.451 266.646 217.538 260.127 218.052C238.452 219.765 216.797 215.721 195.178 213.369C160.082 209.558 124.67 210.229 89.5143 212.854C80.9107 213.498 72.3124 214.248 63.7195 215.106C56.7865 215.785 43.6238 219.93 37.0886 217.956C29.8019 215.749 34.5847 210.969 36.1281 204.107C37.7799 196.823 37.6111 189.165 36.542 181.832Z" fill="#D0E7FD"/>
<path d="M154.335 57.5235C154.335 57.5235 151.011 71.0386 146.044 74.8093C140.915 78.7006 135.594 71.2235 135.594 71.2235L132.632 76.5781C132.632 76.5781 138.11 85.422 143.632 85.627C149.155 85.832 154.002 80.8875 154.002 80.8875L154.335 57.5235Z" fill="#D0E7FD"/>
<path d="M125.948 48.2414L126.7 47.9078L142.021 51.8031L146.622 82.8372H146.048L125.948 48.2414Z" fill="#3F3D56"/>
<path opacity="0.05" d="M53.4747 215.697C53.4747 215.697 20.0555 217.936 15.2486 221.14C10.4417 224.343 48.085 225.047 108.151 223.242C168.217 221.437 214.466 223.242 247.214 226.546C279.961 229.851 324.381 229.212 324.996 221.119C325.611 213.027 243.91 212.931 243.91 212.931L53.4747 215.697Z" fill="#000405"/>
<path d="M261.244 151.281C261.244 151.281 260.123 160.615 252.913 161.532H221.242L216.736 109.711H250.095C252.788 109.711 258.306 112.613 259.408 116.721C259.555 117.482 259.653 118.251 259.701 119.025C260.44 126.996 261.244 151.281 261.244 151.281Z" fill="#D0E7FD"/>
<path d="M304.321 52.5709H273.776L264.709 43.6667L264.307 43.2647H294.732C297.425 43.2647 302.943 46.1672 304.044 50.2755C304.185 51.0341 304.277 51.8007 304.321 52.5709Z" fill="url(#paint0_linear)"/>
<path d="M57.5622 114.534L54.58 113.236C54.1919 113.067 53.8738 112.77 53.6793 112.394C53.4848 112.018 53.4258 111.586 53.5121 111.172C53.5985 110.758 53.825 110.386 54.1534 110.119C54.4819 109.852 54.8923 109.706 55.3155 109.706H216.736C218.73 109.688 220.703 110.119 222.507 110.968C224.312 111.817 225.901 113.062 227.158 114.611C228.206 115.882 228.899 117.407 229.168 119.033C229.895 123.885 229.449 145.018 229.248 152.953C229.139 157.263 225.964 160.993 221.688 161.508L221.23 161.552H64.8851L57.5622 114.534Z" fill="#D0E7FD"/>
<path d="M57.5622 114.534L54.58 113.236C54.1919 113.067 53.8738 112.77 53.6793 112.394C53.4848 112.018 53.4258 111.586 53.5121 111.172C53.5985 110.758 53.825 110.386 54.1534 110.119C54.4819 109.852 54.8923 109.706 55.3155 109.706H216.736C218.73 109.688 220.703 110.119 222.507 110.968C224.312 111.817 225.901 113.062 227.158 114.611C228.206 115.882 228.899 117.407 229.168 119.033C229.895 123.885 229.449 145.018 229.248 152.953C229.139 157.263 225.964 160.993 221.688 161.508L221.23 161.552H64.8851L57.5622 114.534Z" fill="#D0E7FD"/>
<path d="M229.26 152.933C229.152 157.242 225.976 160.973 221.7 161.488L221.242 161.532H64.8972L57.5622 114.534L54.58 113.236C54.1919 113.067 53.8738 112.77 53.6793 112.394C53.4848 112.018 53.4258 111.586 53.5121 111.172C53.5985 110.758 53.825 110.386 54.1534 110.119C54.4819 109.852 54.8923 109.706 55.3155 109.706H216.736C218.73 109.688 220.703 110.119 222.507 110.968C224.312 111.817 225.901 113.062 227.158 114.611C228.206 115.882 228.899 117.407 229.168 119.033C229.895 123.865 229.461 144.998 229.26 152.933Z" fill="url(#paint1_linear)"/>
<path opacity="0.61" d="M49.4675 161.568H221.808C222.405 161.568 222.976 161.331 223.398 160.91C223.82 160.489 224.058 159.917 224.059 159.321C224.059 159.025 224.001 158.732 223.888 158.459C223.775 158.186 223.609 157.938 223.4 157.729C223.191 157.52 222.943 157.354 222.67 157.241C222.397 157.128 222.104 157.07 221.808 157.07H49.4675C48.8706 157.07 48.2981 157.307 47.876 157.729C47.4539 158.151 47.2168 158.724 47.2168 159.321C47.2179 159.917 47.4555 160.489 47.8774 160.91C48.2994 161.331 48.8713 161.568 49.4675 161.568Z" fill="url(#paint2_linear)"/>
<path d="M49.4675 161.568H221.808C222.405 161.568 222.976 161.331 223.398 160.91C223.82 160.489 224.058 159.917 224.059 159.321C224.059 159.025 224.001 158.732 223.888 158.459C223.775 158.186 223.609 157.938 223.4 157.729C223.191 157.52 222.943 157.354 222.67 157.241C222.397 157.128 222.104 157.07 221.808 157.07H49.4675C48.8706 157.07 48.2981 157.307 47.876 157.729C47.4539 158.151 47.2168 158.724 47.2168 159.321C47.2179 159.917 47.4555 160.489 47.8774 160.91C48.2994 161.331 48.8713 161.568 49.4675 161.568Z" fill="#D0E7FD"/>
<path d="M257.173 176.317V204.437C257.173 208.105 255.716 211.623 253.124 214.218C250.531 216.812 247.015 218.271 243.347 218.273H61.5169C59.7034 218.276 57.9071 217.921 56.2306 217.23C54.5541 216.538 53.0302 215.523 51.746 214.242C50.4618 212.961 49.4424 211.44 48.7459 209.765C48.0495 208.09 47.6897 206.295 47.687 204.481V176.317C47.6837 173.761 48.3936 171.255 49.7368 169.081C50.0301 168.599 50.355 168.137 50.7094 167.698C52.0029 166.073 53.6466 164.761 55.518 163.859C57.3893 162.958 59.4399 162.491 61.5169 162.492H243.343C247.01 162.495 250.527 163.953 253.12 166.546C255.713 169.14 257.171 172.657 257.173 176.325V176.317Z" fill="#D0E7FD"/>
<path d="M186.368 218.273H61.517C58.8676 218.276 56.2731 217.517 54.0422 216.088C51.8114 214.658 50.038 212.618 48.9331 210.209H178.426C178.426 210.209 180.291 217.043 186.368 218.273Z" fill="url(#paint3_linear)"/>
<path d="M186.368 162.476C180.628 163.425 179.025 169.065 179.025 169.065H49.7368L50.7094 167.682C52.003 166.057 53.6467 164.745 55.518 163.843C57.3893 162.942 59.4399 162.475 61.5169 162.476H186.368Z" fill="url(#paint4_linear)"/>
<path d="M257.173 176.317V204.437C257.175 206.912 256.513 209.342 255.255 211.473C253.997 213.604 252.19 215.359 250.023 216.553H192.919C191.779 216.553 190.65 216.329 189.596 215.893C188.543 215.458 187.586 214.818 186.779 214.012C185.973 213.207 185.333 212.25 184.896 211.196C184.459 210.143 184.234 209.014 184.234 207.874V173.752C184.233 172.611 184.457 171.482 184.894 170.427C185.33 169.373 185.97 168.415 186.776 167.608C187.583 166.802 188.541 166.162 189.595 165.725C190.649 165.289 191.778 165.065 192.919 165.065H251.398C253.186 166.346 254.643 168.035 255.648 169.992C256.652 171.949 257.175 174.117 257.173 176.317Z" fill="url(#paint5_linear)"/>
<path d="M257.173 176.317V204.437C257.173 204.955 257.145 205.473 257.089 205.988C257.064 206.214 257.032 206.435 256.996 206.656C256.847 207.619 256.591 208.563 256.233 209.47C256.148 209.699 256.056 209.92 255.951 210.141C255.501 211.142 254.934 212.087 254.263 212.955C254.086 213.18 253.901 213.405 253.704 213.622C252.655 214.811 251.41 215.81 250.023 216.577H201.122C199.887 216.579 198.665 216.317 197.54 215.807C196.415 215.297 195.412 214.552 194.599 213.622C194.41 213.41 194.233 213.187 194.068 212.955C193.454 212.108 193.003 211.153 192.738 210.141C192.678 209.924 192.63 209.699 192.589 209.47C192.49 208.946 192.44 208.415 192.441 207.882V173.752C192.441 173.144 192.505 172.538 192.634 171.943C192.674 171.718 192.729 171.495 192.798 171.276C193.097 170.257 193.582 169.303 194.229 168.462C194.406 168.23 194.595 168.007 194.796 167.795C195.605 166.928 196.585 166.237 197.673 165.765C198.762 165.293 199.936 165.051 201.122 165.053H251.397C252.474 165.825 253.434 166.748 254.247 167.795C254.416 168.012 254.581 168.233 254.737 168.462C255.343 169.338 255.843 170.282 256.224 171.276C256.313 171.497 256.397 171.722 256.466 171.943C256.776 172.856 256.983 173.799 257.085 174.757C257.113 174.978 257.133 175.204 257.145 175.429C257.157 175.654 257.173 176.04 257.173 176.317Z" fill="#D0E7FD"/>
<path d="M257.173 176.317V204.437C257.173 204.955 257.145 205.473 257.089 205.988C257.064 206.214 257.032 206.435 256.996 206.656C256.847 207.619 256.591 208.563 256.233 209.47C256.148 209.699 256.056 209.92 255.951 210.141C255.501 211.142 254.934 212.087 254.263 212.955C254.086 213.18 253.901 213.405 253.704 213.622C252.655 214.811 251.41 215.81 250.023 216.577H201.122C199.887 216.579 198.665 216.317 197.54 215.807C196.415 215.297 195.412 214.552 194.599 213.622C194.41 213.41 194.233 213.187 194.068 212.955C193.454 212.108 193.003 211.153 192.738 210.141C192.678 209.924 192.63 209.699 192.589 209.47C192.49 208.946 192.44 208.415 192.441 207.882V173.752C192.441 173.144 192.505 172.538 192.634 171.943C192.674 171.718 192.729 171.495 192.798 171.276C193.097 170.257 193.582 169.303 194.229 168.462C194.406 168.23 194.595 168.007 194.796 167.795C195.605 166.928 196.585 166.237 197.673 165.765C198.762 165.293 199.936 165.051 201.122 165.053H251.397C252.474 165.825 253.434 166.748 254.247 167.795C254.416 168.012 254.581 168.233 254.737 168.462C255.343 169.338 255.843 170.282 256.224 171.276C256.313 171.497 256.397 171.722 256.466 171.943C256.776 172.856 256.983 173.799 257.085 174.757C257.113 174.978 257.133 175.204 257.145 175.429C257.157 175.654 257.173 176.04 257.173 176.317Z" fill="url(#paint6_linear)"/>
<path d="M254.737 168.474H194.229C194.406 168.242 194.595 168.019 194.796 167.807H254.243C254.412 168.024 254.581 168.245 254.737 168.474Z" fill="white"/>
<path d="M256.466 171.943H192.634C192.674 171.718 192.729 171.495 192.798 171.276H256.224C256.313 171.497 256.397 171.722 256.466 171.943Z" fill="white"/>
<path d="M257.145 175.417H192.437V174.745H257.084C257.113 174.966 257.133 175.192 257.145 175.417Z" fill="white"/>
<path d="M257.177 178.219H192.441V178.886H257.177V178.219Z" fill="white"/>
<path d="M257.177 181.688H192.441V182.355H257.177V181.688Z" fill="white"/>
<path d="M257.177 185.161H192.441V185.828H257.177V185.161Z" fill="white"/>
<path d="M257.177 188.634H192.441V189.298H257.177V188.634Z" fill="white"/>
<path d="M257.177 192.103H192.441V192.767H257.177V192.103Z" fill="white"/>
<path d="M257.177 195.577H192.441V196.24H257.177V195.577Z" fill="white"/>
<path d="M257.177 199.046H192.441V199.709H257.177V199.046Z" fill="white"/>
<path d="M257.177 202.519H192.441V203.186H257.177V202.519Z" fill="white"/>
<path d="M257.089 205.988C257.064 206.213 257.032 206.435 256.996 206.656H192.441V205.988H257.089Z" fill="white"/>
<path d="M256.253 209.458C256.168 209.687 256.076 209.908 255.971 210.129H192.75C192.69 209.912 192.642 209.687 192.601 209.458H256.253Z" fill="white"/>
<path d="M254.263 212.931C254.086 213.156 253.901 213.381 253.704 213.598H194.599C194.41 213.386 194.233 213.163 194.068 212.931H254.263Z" fill="white"/>
<path d="M176.947 155.992H218.143C216.396 156.864 214.469 157.315 212.516 157.311H59.3386C56.8078 157.333 54.3318 156.574 52.2488 155.136C51.6588 154.729 51.1108 154.265 50.613 153.749C50.4522 153.584 50.2955 153.411 50.1468 153.239C49.586 152.583 49.1081 151.861 48.724 151.088C48.6396 150.919 48.5592 150.746 48.4869 150.577C48.1886 149.888 47.9727 149.166 47.8438 148.427C47.8157 148.258 47.7875 148.089 47.7674 147.912C47.7193 147.512 47.6952 147.109 47.6951 146.706V125.135C47.6911 124.906 47.6991 124.676 47.7192 124.448C47.7433 124.223 47.7473 124.106 47.7674 123.937C47.8572 123.203 48.0312 122.481 48.2859 121.786C48.3502 121.614 48.4185 121.445 48.4909 121.272C48.817 120.507 49.2383 119.785 49.7449 119.125L50.1468 118.611C50.4436 118.264 50.7617 117.937 51.0993 117.63C53.3653 115.609 56.3028 114.506 59.3386 114.534H212.516C214.924 114.531 217.28 115.229 219.296 116.544H176.947C176.302 116.544 175.659 116.622 175.034 116.778C173.749 117.083 172.569 117.727 171.617 118.643C171.448 118.805 171.288 118.976 171.139 119.157C170.601 119.787 170.191 120.517 169.933 121.304C169.877 121.473 169.83 121.645 169.793 121.819C169.685 122.273 169.631 122.739 169.632 123.206V149.363C169.633 149.768 169.675 150.172 169.756 150.569C169.789 150.742 169.832 150.912 169.885 151.08C170.113 151.863 170.492 152.594 171.002 153.231C171.142 153.408 171.291 153.578 171.449 153.741C172.138 154.456 172.969 155.02 173.888 155.397C174.857 155.801 175.897 156.003 176.947 155.992Z" fill="#D0E7FD"/>
<path d="M224.164 125.292V147.116C224.168 147.24 224.16 147.364 224.139 147.486C224.115 147.607 224.139 147.731 224.107 147.852C224.083 147.962 224.069 148.073 224.063 148.185C224.063 148.294 224.035 148.358 224.019 148.443C224.015 148.486 224.007 148.529 223.995 148.571C223.975 148.688 223.951 148.809 223.922 148.925C223.894 149.042 223.886 149.078 223.862 149.154C223.838 149.231 223.826 149.303 223.802 149.379C223.778 149.456 223.758 149.54 223.734 149.621L223.649 149.866C223.64 149.935 223.618 150.002 223.585 150.063C223.561 150.127 223.52 150.236 223.484 150.32L223.376 150.581C223.359 150.63 223.337 150.677 223.312 150.722C223.286 150.79 223.257 150.855 223.223 150.919C223.199 150.975 223.167 151.032 223.139 151.088C223.111 151.144 223.054 151.261 223.006 151.341C222.958 151.422 222.869 151.602 222.793 151.743L222.668 151.944C222.556 152.129 222.439 152.306 222.315 152.479C222.25 152.571 222.186 152.656 222.122 152.74C221.993 152.913 221.857 153.078 221.72 153.243C221.583 153.407 221.414 153.588 221.25 153.753C220.92 154.09 220.57 154.405 220.201 154.698C220.195 154.709 220.185 154.718 220.173 154.722C220.052 154.818 219.931 154.907 219.807 154.999L219.405 155.277L219.003 155.534C218.874 155.614 218.746 155.687 218.601 155.763L218.139 156.008H176.947C175.897 156.013 174.857 155.807 173.888 155.401C172.971 155.024 172.141 154.464 171.448 153.753C171.291 153.591 171.142 153.42 171.002 153.243C170.493 152.61 170.113 151.884 169.885 151.104C169.832 150.938 169.789 150.769 169.756 150.597C169.675 150.201 169.633 149.797 169.632 149.391V123.334C169.631 122.87 169.685 122.407 169.793 121.955C169.83 121.783 169.877 121.612 169.933 121.445C170.191 120.661 170.601 119.936 171.139 119.31C171.288 119.129 171.448 118.957 171.617 118.796C172.573 117.886 173.751 117.246 175.034 116.938C175.66 116.786 176.302 116.709 176.947 116.709H219.296C219.481 116.83 219.666 116.954 219.843 117.087L220.048 117.24C220.328 117.448 220.596 117.671 220.852 117.907L221.073 118.116L221.234 118.277L221.451 118.502L221.668 118.743L221.712 118.796L221.744 118.836C221.873 118.989 222.001 119.149 222.122 119.31C222.186 119.391 222.246 119.475 222.307 119.555C222.311 119.568 222.32 119.58 222.331 119.588C222.441 119.743 222.545 119.9 222.644 120.058L222.817 120.339C222.922 120.516 223.022 120.701 223.115 120.882C223.159 120.978 223.207 121.067 223.251 121.159C223.295 121.252 223.34 121.352 223.376 121.445C223.412 121.537 223.452 121.614 223.484 121.702C223.516 121.79 223.553 121.871 223.581 121.955L223.669 122.209C223.791 122.557 223.889 122.913 223.963 123.274C223.976 123.32 223.986 123.367 223.991 123.415C223.999 123.5 224.015 123.585 224.039 123.668C224.039 123.752 224.083 123.953 224.103 124.094C224.123 124.235 224.143 124.432 224.152 124.604V124.878C224.152 124.986 224.164 125.151 224.164 125.292Z" fill="url(#paint7_linear)"/>
<path d="M173.888 155.381C172.98 155.602 172.043 155.803 171.075 155.992H61.8626C58.6378 156.019 55.4181 155.732 52.2488 155.136C51.6588 154.729 51.1108 154.265 50.613 153.749C50.4522 153.584 50.2955 153.411 50.1468 153.239C49.586 152.583 49.1081 151.861 48.724 151.088C48.6396 150.919 48.5592 150.746 48.4869 150.577C48.1886 149.888 47.9727 149.166 47.8438 148.427C47.8157 148.258 47.7875 148.089 47.7674 147.912C47.7193 147.512 47.6952 147.109 47.6951 146.706V125.135C47.6911 124.906 47.6991 124.676 47.7192 124.448C47.7433 124.223 47.7473 124.106 47.7674 123.937C47.8572 123.203 48.0312 122.481 48.2859 121.786C48.3502 121.614 48.4185 121.445 48.4909 121.272C48.817 120.507 49.2383 119.785 49.7449 119.125L50.1468 118.611C50.4436 118.264 50.7617 117.937 51.0993 117.63C54.6382 116.867 58.2505 116.496 61.8706 116.524H174.133L175.034 116.758C173.749 117.062 172.569 117.707 171.617 118.623C171.448 118.784 171.288 118.956 171.139 119.137C170.601 119.767 170.191 120.496 169.933 121.284C169.877 121.453 169.83 121.624 169.793 121.799C169.685 122.253 169.631 122.718 169.632 123.185V149.343C169.633 149.748 169.675 150.152 169.756 150.549C169.789 150.722 169.832 150.892 169.885 151.06C170.113 151.843 170.492 152.574 171.002 153.21C171.142 153.388 171.291 153.558 171.449 153.721C172.138 154.437 172.969 155.002 173.888 155.381Z" fill="#D0E7FD"/>
<path d="M173.888 155.381C172.98 155.602 172.043 155.803 171.075 155.992H61.8626C58.6378 156.019 55.4181 155.732 52.2488 155.136C51.6588 154.729 51.1108 154.265 50.613 153.749C50.4522 153.584 50.2955 153.411 50.1468 153.239C49.586 152.583 49.1081 151.861 48.724 151.088C48.6396 150.919 48.5592 150.746 48.4869 150.577C48.1886 149.888 47.9727 149.166 47.8438 148.427C47.8157 148.258 47.7875 148.089 47.7674 147.912C47.7193 147.512 47.6952 147.109 47.6951 146.706V125.135C47.6911 124.906 47.6991 124.676 47.7192 124.448C47.7433 124.223 47.7473 124.106 47.7674 123.937C47.8572 123.203 48.0312 122.481 48.2859 121.786C48.3502 121.614 48.4185 121.445 48.4909 121.272C48.817 120.507 49.2383 119.785 49.7449 119.125L50.1468 118.611C50.4436 118.264 50.7617 117.937 51.0993 117.63C54.6382 116.867 58.2505 116.496 61.8706 116.524H174.133L175.034 116.758C173.749 117.062 172.569 117.707 171.617 118.623C171.448 118.784 171.288 118.956 171.139 119.137C170.601 119.767 170.191 120.496 169.933 121.284C169.877 121.453 169.83 121.624 169.793 121.799C169.685 122.253 169.631 122.718 169.632 123.185V149.343C169.633 149.748 169.675 150.152 169.756 150.549C169.789 150.722 169.832 150.892 169.885 151.06C170.113 151.843 170.492 152.574 171.002 153.21C171.142 153.388 171.291 153.558 171.449 153.721C172.138 154.437 172.969 155.002 173.888 155.381Z" fill="url(#paint8_linear)"/>
<path d="M221.242 157.592C220.919 157.966 220.568 158.316 220.193 158.637C220.565 158.312 220.916 157.963 221.242 157.592Z" fill="url(#paint9_linear)"/>
<path d="M222.295 119.853C222.235 119.76 222.174 119.668 222.11 119.579C221.989 119.403 221.861 119.226 221.732 119.057C221.933 119.314 222.122 119.58 222.295 119.853Z" fill="url(#paint10_linear)"/>
<path d="M223.569 122.502C223.601 122.594 223.629 122.687 223.657 122.779C223.605 122.59 223.541 122.406 223.472 122.221C223.509 122.313 223.541 122.406 223.569 122.502Z" fill="url(#paint11_linear)"/>
<path d="M224.164 125.292V147.357C224.163 147.514 224.149 147.67 224.124 147.824C224.053 148.486 223.91 149.138 223.698 149.769C223.649 149.926 223.597 150.079 223.537 150.228C222.523 152.75 220.608 154.805 218.163 155.992H170.03C166.316 155.992 163.25 153.484 162.796 150.236C162.767 150.082 162.751 149.926 162.747 149.769C162.733 149.636 162.726 149.502 162.727 149.367V123.334C162.727 119.672 165.999 116.709 170.042 116.709H219.297C222.259 118.623 224.164 121.77 224.164 125.292Z" fill="#D0E7FD"/>
<path d="M222.11 119.125H171.139C171.288 118.944 171.448 118.772 171.617 118.611H221.688C221.841 118.772 221.982 118.944 222.11 119.125Z" fill="white"/>
<path d="M223.569 121.77H169.793C169.83 121.596 169.877 121.425 169.933 121.256H223.388C223.44 121.441 223.509 121.614 223.569 121.77Z" fill="white"/>
<path d="M224.144 124.448H169.632V123.933H224.1C224.1 124.102 224.132 124.275 224.144 124.448Z" fill="white"/>
<path d="M224.168 126.594H169.632V127.109H224.168V126.594Z" fill="white"/>
<path d="M224.168 129.256H169.632V129.77H224.168V129.256Z" fill="white"/>
<path d="M224.168 131.917H169.632V132.431H224.168V131.917Z" fill="white"/>
<path d="M224.168 134.582H169.632V135.092H224.168V134.582Z" fill="white"/>
<path d="M224.168 137.243H169.632V137.754H224.168V137.243Z" fill="white"/>
<path d="M224.168 139.904H169.632V140.415H224.168V139.904Z" fill="white"/>
<path d="M224.168 142.566H169.632V143.076H224.168V142.566Z" fill="white"/>
<path d="M224.168 145.227H169.632V145.741H224.168V145.227Z" fill="white"/>
<path d="M224.172 147.9V148.415H169.632V147.9H224.172Z" fill="white"/>
<path d="M223.372 150.549C223.372 150.722 223.151 150.891 223.135 151.064H169.885C169.832 150.895 169.789 150.723 169.757 150.549H223.372Z" fill="white"/>
<path d="M173.096 119.125H49.7368L50.1387 118.611H172.116C172.453 118.78 172.779 118.956 173.096 119.125Z" fill="white"/>
<path d="M171.987 121.77H48.2778C48.3421 121.598 48.4105 121.429 48.4828 121.256H171.501C171.673 121.417 171.835 121.589 171.987 121.77Z" fill="white"/>
<path d="M173.354 124.448H47.7112C47.7152 124.277 47.7313 124.106 47.7594 123.937H173.225C173.28 124.104 173.323 124.275 173.354 124.448Z" fill="white"/>
<path d="M173.41 126.594H47.6831V127.105H173.41V126.594Z" fill="white"/>
<path d="M173.41 129.256H47.6831V129.766H173.41V129.256Z" fill="white"/>
<path d="M173.41 131.917H47.6831V132.431H173.41V131.917Z" fill="white"/>
<path d="M173.41 134.582H47.6831V135.092H173.41V134.582Z" fill="white"/>
<path d="M173.41 137.247H47.6831V137.754H173.41V137.247Z" fill="white"/>
<path d="M173.41 139.904H47.6831V140.411H173.41V139.904Z" fill="white"/>
<path d="M173.41 142.566H47.6831V143.076H173.41V142.566Z" fill="white"/>
<path d="M173.41 145.227H47.6831V145.741H173.41V145.227Z" fill="white"/>
<path d="M173.225 147.9C173.172 148.075 173.109 148.247 173.036 148.415H47.8278C47.7997 148.246 47.7716 148.077 47.7515 147.9H173.225Z" fill="white"/>
<path d="M171.517 150.553C171.337 150.733 171.148 150.903 170.95 151.064H48.7161C48.6317 150.895 48.5513 150.722 48.479 150.553H171.517Z" fill="white"/>
<path opacity="0.2" d="M177.795 109.711C175.982 111.889 173.639 114.08 172.711 114.567C167.43 117.348 161.312 119.479 158.214 124.584C154.291 131.016 156.827 139.43 155.026 146.754C154.697 148.089 154.186 149.452 153.154 150.372C152.121 151.293 150.461 151.606 149.363 150.774C148.399 150.047 148.158 148.728 147.977 147.534C146.393 136.264 146.333 124.832 147.8 113.546C141.771 116.239 137.692 121.923 134.473 127.672C131.253 133.42 128.552 139.583 124.067 144.411C122.793 145.778 121.117 147.116 119.268 146.851C117.046 144.037 118.211 139.924 119.473 136.556C122.001 129.77 124.537 122.976 127.809 116.544C128.862 114.454 130.031 112.356 131.8 110.82C132.283 110.401 132.806 110.028 133.359 109.706L177.795 109.711Z" fill="#3F3D56"/>
<path d="M221.712 153.214C221.576 153.395 221.423 153.536 221.27 153.725H50.6051C50.4444 153.56 50.2876 153.387 50.1389 153.214H221.712Z" fill="white"/>
<path d="M87.5288 218.273H66.9066C60.2951 216.609 57.0918 209.458 57.0918 209.458C57.0918 209.458 56.493 174.484 57.0918 170.062C57.6907 165.64 67.7064 162.464 67.7064 162.464H87.5288C80.9173 163.413 76.1144 169.861 76.1144 169.861C76.1144 169.861 75.7125 208.513 76.1144 211.114C76.5164 213.715 87.5288 218.273 87.5288 218.273Z" fill="url(#paint12_linear)"/>
<path d="M87.5289 218.273H80.9174C74.314 216.609 71.1107 209.458 71.1107 209.458C71.1107 209.458 70.5078 174.484 71.1107 170.062C71.7136 165.64 81.7212 162.464 81.7212 162.464H87.5289C80.9174 163.413 76.1146 169.861 76.1146 169.861C76.1146 169.861 75.7126 208.513 76.1146 211.114C76.5165 213.715 87.5289 218.273 87.5289 218.273Z" fill="#D0E7FD"/>
<path d="M87.5289 218.273H80.9174C74.314 216.609 71.1107 209.458 71.1107 209.458C71.1107 209.458 70.5078 174.484 71.1107 170.062C71.7136 165.64 81.7212 162.464 81.7212 162.464H87.5289C80.9174 163.413 76.1146 169.861 76.1146 169.861C76.1146 169.861 75.7126 208.513 76.1146 211.114C76.5165 213.715 87.5289 218.273 87.5289 218.273Z" fill="url(#paint13_linear)"/>
<path d="M116.25 134.956L114.329 138.292L118.79 140.234L120.635 137.058L116.25 134.956Z" fill="url(#paint14_linear)"/>
<path d="M146.245 143.916L146.036 147.635L150.899 147.353L151.104 143.916H146.245Z" fill="url(#paint15_linear)"/>
<path d="M115.205 137.553C115.108 137.349 114.971 137.168 114.803 137.018C114.605 136.886 114.379 136.803 114.144 136.777L106.423 135.225C106.144 135.156 105.858 135.125 105.571 135.133C104.831 135.181 104.224 135.724 103.738 136.282C103.46 136.547 103.281 136.899 103.232 137.279C103.26 137.518 103.337 137.749 103.459 137.956C103.581 138.164 103.744 138.344 103.939 138.485C104.482 138.989 105.052 139.461 105.647 139.9C106.791 140.703 107.982 141.437 109.212 142.099C110.04 142.566 110.868 143.032 111.716 143.458C113.111 144.157 114.558 144.744 116.013 145.315C116.108 145.375 116.224 145.394 116.334 145.368C116.444 145.343 116.54 145.275 116.599 145.179C117.652 144.081 118.482 142.789 119.043 141.376C119.184 141.026 119.445 140.258 119.043 139.969C118.902 139.868 118.504 139.884 118.328 139.844C117.681 139.689 117.072 139.407 116.535 139.014C115.998 138.621 115.545 138.126 115.201 137.557L115.205 137.553Z" fill="#3F3D56"/>
<path d="M146.53 145.946C146.343 145.821 146.135 145.732 145.915 145.685C145.678 145.672 145.442 145.714 145.224 145.806L137.772 148.35C137.49 148.429 137.219 148.545 136.968 148.696C136.353 149.098 136.1 149.902 135.96 150.614C135.851 150.981 135.875 151.375 136.028 151.727C136.171 151.917 136.352 152.076 136.56 152.193C136.767 152.31 136.997 152.383 137.234 152.406C137.954 152.571 138.685 152.692 139.42 152.768C140.811 152.889 142.208 152.925 143.604 152.877C144.556 152.877 145.505 152.853 146.454 152.792C148.013 152.696 149.56 152.475 151.1 152.238C151.211 152.242 151.32 152.202 151.403 152.127C151.486 152.052 151.536 151.947 151.542 151.836C151.899 150.356 151.968 148.823 151.747 147.317C151.69 146.943 151.518 146.155 151.031 146.111C150.859 146.091 150.525 146.308 150.352 146.36C150.09 146.441 149.821 146.497 149.548 146.529C148.506 146.657 147.45 146.453 146.53 145.946Z" fill="#3F3D56"/>
<path d="M176.698 95.8015C176.698 95.8015 175.436 107.616 164.548 109.711C157.177 111.122 148.162 110.619 143.114 110.149C141.92 110.038 140.719 110.261 139.644 110.791C138.568 111.321 137.66 112.138 137.021 113.152L121.346 138.124L116.804 135.929H116.768L115.16 135.157L128.211 104.682C128.977 102.789 130.154 101.091 131.657 99.7087C133.16 98.3267 134.95 97.2956 136.9 96.6899L151.895 92.0469L155.4 90.9615C155.4 90.9615 169.439 89.5464 176.698 95.8015Z" fill="#3F3D56"/>
<path opacity="0.24" d="M151.924 92.0227L152.908 94.1091C152.908 94.1091 135.626 99.1742 133.504 101.638C130.67 104.935 116.82 135.909 116.82 135.909H116.784L115.177 135.137L128.211 104.682C128.977 102.789 130.154 101.091 131.657 99.7087C133.16 98.3267 134.95 97.2956 136.9 96.6899L151.924 92.0227Z" fill="white"/>
<path d="M158.049 93.7513C158.049 93.7513 144.167 107.299 143.717 114.534C143.267 121.77 145.208 144.459 145.208 144.459H151.944C151.944 144.459 151.61 116.914 154.355 116.721C157.1 116.528 169.544 108.505 171.541 106.213C173.539 103.922 176.726 95.7934 176.726 95.7934L158.049 93.7513Z" fill="#3F3D56"/>
<path d="M176.698 95.8015C176.698 95.8015 165.589 101.482 154.014 94.8367C153.005 94.2578 152.037 93.6118 151.116 92.9031C151.116 92.9031 155.987 84.1999 152.108 71.5572C150.449 66.1503 150.412 55.8271 158.632 54.3558H158.672C166.847 52.9046 166.384 54.9226 166.384 54.9226L170.082 58.5164C177.192 64.2851 177.972 73.129 176.698 95.8015Z" fill="#D0E7FD"/>
<path opacity="0.24" d="M158.672 54.3477C158.33 55.0921 157.799 55.7339 157.132 56.209C157.132 56.209 152.245 58.3757 153.222 65.5433C154.198 72.7109 155.987 86.4953 155.987 86.4953L154.014 94.8367C153.005 94.2578 152.037 93.6118 151.116 92.9031C151.116 92.9031 155.987 84.1999 152.108 71.5571C150.449 66.1503 150.412 55.8271 158.632 54.3558L158.672 54.3477Z" fill="white"/>
<path d="M166.023 53.8895C165.592 54.4045 165.064 54.8296 164.469 55.1404C163.873 55.4513 163.223 55.6418 162.554 55.7012C161.885 55.7605 161.211 55.6875 160.571 55.4864C159.93 55.2852 159.335 54.9597 158.82 54.5286L158.644 54.3759C158.644 54.3759 152.615 60.4058 158.708 61.1334C161.923 61.5354 165.882 57.6441 167.028 55.4452L166.023 53.8895Z" fill="#3F3D56"/>
<path d="M167.831 48.2414C167.807 48.3218 166.674 51.7911 165.822 54.2714C165.19 56.2047 163.848 57.8265 162.068 58.8099C161.023 59.4409 159.861 59.8513 158.652 60.0159C158.446 60.0347 158.238 60.0127 158.04 59.9511C157.843 59.8896 157.659 59.7897 157.5 59.6572C157.341 59.5246 157.21 59.3621 157.114 59.1787C157.017 58.9954 156.958 58.795 156.94 58.5888C156.908 58.2593 156.983 57.9283 157.153 57.6441C157.434 57.1497 157.739 56.5788 158.021 55.9718C158.608 54.7095 159.098 53.3066 159.017 52.1971V52.0765C158.945 51.4976 159.323 50.9871 159.958 50.5409C160.854 49.9178 162.265 49.4273 163.644 49.0575C165.023 48.7072 166.421 48.4347 167.831 48.2414Z" fill="url(#paint16_linear)"/>
<path d="M158.897 55.9236C158.621 55.9797 158.338 56 158.057 55.9839C158.644 54.7216 159.134 53.3186 159.054 52.2091L159.986 50.5529L160.681 49.3228L163.672 49.0695L166.694 48.8163C164.701 53.5317 161.353 55.4854 158.897 55.9236Z" fill="url(#paint17_linear)"/>
<path d="M164.512 32.3787C162.408 31.9386 160.216 32.3519 158.417 33.5279C156.618 34.7038 155.359 36.5461 154.918 38.6498C154.878 38.8549 154.842 39.0518 154.813 39.2729C154.195 42.5218 154.17 45.8557 154.737 49.1138C156.116 54.1588 163.523 52.3297 165.026 50.7981C166.529 49.2665 172.57 42.2075 171.581 39.4619C170.95 37.5966 168.74 33.3314 164.512 32.3787Z" fill="url(#paint18_linear)"/>
<path d="M158.543 27.4583L159.685 28.5075C158.9 28.2759 158.072 28.2342 157.268 28.3859C156.465 28.5375 155.709 28.8782 155.063 29.3798C153.532 30.2586 152.405 31.7013 151.924 33.3998L154.46 32.9455C154.46 32.9455 153.535 35.6751 157.739 37.0378C161.943 38.4006 166.392 39.8036 166.392 39.8036L165.492 37.3916C165.492 37.3916 167.851 39.1684 168.048 40.2779C168.041 41.9606 167.907 43.6404 167.646 45.3029C167.646 45.3029 169.447 42.8507 169.72 43.5662C169.994 44.2818 168.426 46.5209 167.711 46.9189C166.995 47.3169 166.658 48.9691 166.569 49.0897C166.481 49.2103 169.785 47.7068 170.11 46.9671C170.436 46.2275 175.235 39.1885 173.916 37.0821L174.997 37.2871C174.483 36.6954 173.843 36.2258 173.125 35.9123C173.125 35.9123 168.635 24.8895 158.543 27.4583Z" fill="#3F3D56"/>
<path d="M156.952 86.8169C156.345 86.2099 155.746 85.4863 154.898 85.3416C154.6 86.0491 155.207 86.7767 155.464 87.4963C155.504 87.5762 155.525 87.6643 155.525 87.7535C155.525 87.8428 155.504 87.9309 155.464 88.0108C155.344 88.2038 155.063 88.2158 154.842 88.1998C153.769 88.1233 152.717 87.8707 151.727 87.4521C150.81 87.0501 149.93 86.5315 148.937 86.431C148.831 86.41 148.721 86.4241 148.624 86.4712C148.383 86.6239 148.523 86.9938 148.696 87.2189C149.065 87.705 149.484 88.151 149.946 88.5495C149.246 88.2391 148.499 88.0475 147.736 87.9827C147.523 87.9827 147.233 88.0269 147.237 88.24C147.251 88.3275 147.294 88.4081 147.358 88.4691C147.923 89.116 148.605 89.6506 149.367 90.0449C148.813 89.9278 148.246 89.8806 147.679 89.9042C147.434 89.9042 147.109 90.0329 147.145 90.2741C147.16 90.3535 147.2 90.4263 147.257 90.4831C147.937 91.3041 148.856 91.8928 149.886 92.1675L148.278 92.2036C148.177 92.1996 148.076 92.2203 147.985 92.2639C147.695 92.4489 147.949 92.9031 148.23 93.1001C149.468 93.9644 151.043 94.1171 152.559 94.2257C155.456 94.4347 158.507 94.5473 161.119 93.2689C161.308 93.1724 161.521 93.0438 161.558 92.8348C161.566 92.7253 161.549 92.6154 161.509 92.5132C161.192 91.4559 161.031 89.5384 160.07 88.8952C159.604 88.5857 159.029 88.4088 158.551 88.0912C158.073 87.7736 157.498 87.0903 156.952 86.8169Z" fill="url(#paint19_linear)"/>
<path d="M179.057 84.5738C178.149 93.5021 161.972 94.5955 161.972 94.5955L160.304 88.859L160.01 87.85C160.01 87.85 168.676 86.7566 170.331 84.0431C171.987 81.3297 165.171 72.2325 169.29 67.1593C173.41 62.0862 174.347 63.6459 174.347 63.6459C174.347 63.6459 179.957 75.6455 179.057 84.5738Z" fill="#D0E7FD"/>
<path d="M135.602 71.2275C135.597 71.5074 135.574 71.7867 135.534 72.0637C135.397 73.3139 135.007 75.6012 133.97 76.4334C132.511 77.6032 132.31 75.8987 132.342 75.2274C132.374 74.8588 132.435 74.4932 132.523 74.1339C132.861 72.6787 134.649 71.6818 135.337 71.3521L135.602 71.2275Z" fill="url(#paint20_linear)"/>
<path d="M135.534 72.0637C135.397 73.3139 135.007 75.6012 133.97 76.4334C133.52 76.1077 132.941 75.6736 132.342 75.2274C131.539 74.6244 130.682 73.9892 130.076 73.547C129.536 73.185 129.044 72.7554 128.613 72.2687C128.235 71.7747 127.921 71.2343 127.68 70.6607L126.434 67.9513C126.032 67.0629 125.63 65.889 126.346 65.2016C126.527 65.0247 128.175 64.7032 128.283 64.47C128.584 63.8027 126.675 62.3917 126.796 61.656C126.856 61.4557 126.984 61.2825 127.158 61.1665C127.332 61.0505 127.541 60.999 127.749 61.0209C128.15 61.041 129.292 62.0902 129.65 62.3032C130.357 62.7052 129.762 63.2761 130.453 63.6941C131.35 64.1551 132.165 64.7609 132.865 65.487C133.645 66.3996 134.038 67.5694 134.412 68.703C134.686 69.5351 135.051 70.4356 135.333 71.332C135.409 71.5893 135.477 71.8265 135.534 72.0637Z" fill="url(#paint21_linear)"/>
<path d="M129.621 65.6559L126.941 52.9408L125.948 48.2414L141.526 52.4182L146.048 82.8371L131.571 78.4232L129.621 65.6559Z" fill="#D0E7FD"/>
<path d="M132.865 65.5031L126.699 51.8031L131.571 78.4232L146.048 82.8371L144.496 72.4054L132.865 65.5031Z" fill="url(#paint22_linear)"/>
<path d="M130.51 71.1391C131 70.8939 132.005 70.4477 132.258 69.9612C132.318 69.8447 132.407 69.6919 132.33 69.5874C131.981 69.105 130.542 69.72 130.132 69.5874C130.413 69.1251 132.921 67.7221 131.74 67.4045C131.486 67.3362 129.915 68.1322 129.662 68.0598C129.859 67.899 131.474 66.7493 131.752 66.4518C131.832 66.3632 131.879 66.25 131.887 66.1308C131.894 66.0116 131.86 65.8934 131.792 65.7957C131.723 65.6981 131.623 65.6266 131.509 65.5932C131.394 65.5597 131.271 65.5662 131.161 65.6117C130.305 66.0048 129.427 66.3484 128.532 66.6408C128.705 66.3553 131.04 65.0328 131.133 64.6951C131.185 64.5674 131.193 64.4261 131.157 64.2931C131.124 64.2215 131.077 64.1576 131.018 64.1057C130.96 64.0537 130.89 64.0148 130.815 63.9916C130.164 63.7384 129.433 63.9916 128.782 64.2529L127.238 64.8639C126.744 65.0569 126.197 65.3061 126.032 65.8046C125.96 66.0569 125.948 66.3225 125.996 66.5805C126.184 68.2081 126.765 69.7656 127.688 71.119C128.146 71.7863 129.593 73.3983 130.425 73.5551C131.165 73.6958 129.818 71.521 130.51 71.1391Z" fill="url(#paint23_linear)"/>
<path opacity="0.24" d="M146.626 112.348C146.626 112.348 151.94 100.171 158.081 96.706L155.987 95.8578C155.987 95.8578 145.204 107.327 143.93 113.228C142.656 119.129 145.212 144.451 145.212 144.451H146.98C146.98 144.451 144.058 114.832 146.626 112.348Z" fill="white"/>
<path opacity="0.24" d="M170.781 85.9928C167.361 87.3998 161.537 88.6259 160.283 88.8832L160.042 88.9314L159.99 87.8741C159.99 87.8741 168.655 86.7807 170.311 84.0673C171.967 81.3538 165.151 72.2566 169.27 67.1835C169.27 67.1835 168.748 71.6697 170.102 74.9862C171.457 78.3026 174.624 84.3848 170.781 85.9928Z" fill="white"/>
<defs>
<linearGradient id="paint0_linear" x1="281.027" y1="41.6688" x2="305.996" y2="79.7131" gradientUnits="userSpaceOnUse">
<stop stop-color="white" stop-opacity="0"/>
<stop offset="0.99" stop-color="white"/>
</linearGradient>
<linearGradient id="paint1_linear" x1="62232.4" y1="26597.9" x2="62259.4" y2="18292.4" gradientUnits="userSpaceOnUse">
<stop stop-color="white" stop-opacity="0"/>
<stop offset="0.99" stop-color="white"/>
</linearGradient>
<linearGradient id="paint2_linear" x1="165.701" y1="86.9858" x2="132.234" y2="167.472" gradientUnits="userSpaceOnUse">
<stop offset="0.17" stop-color="#00272E"/>
<stop offset="1" stop-color="#69B9EB" stop-opacity="0"/>
</linearGradient>
<linearGradient id="paint3_linear" x1="117.238" y1="199.854" x2="118.593" y2="247.052" gradientUnits="userSpaceOnUse">
<stop stop-opacity="0"/>
<stop offset="0.91" stop-opacity="0.8"/>
<stop offset="1"/>
</linearGradient>
<linearGradient id="paint4_linear" x1="40607.2" y1="3820.98" x2="40605.5" y2="4261.26" gradientUnits="userSpaceOnUse">
<stop stop-color="white" stop-opacity="0"/>
<stop offset="0.99" stop-color="white"/>
</linearGradient>
<linearGradient id="paint5_linear" x1="37449" y1="7004.67" x2="22869.1" y2="7788.84" gradientUnits="userSpaceOnUse">
<stop stop-opacity="0"/>
<stop offset="0.91" stop-opacity="0.8"/>
<stop offset="1"/>
</linearGradient>
<linearGradient id="paint6_linear" x1="35731.1" y1="29721.7" x2="37144.9" y2="11004.2" gradientUnits="userSpaceOnUse">
<stop stop-color="white" stop-opacity="0"/>
<stop offset="0.99" stop-color="white"/>
</linearGradient>
<linearGradient id="paint7_linear" x1="224.879" y1="138.578" x2="168.735" y2="133.953" gradientUnits="userSpaceOnUse">
<stop stop-color="#68E1FD"/>
<stop offset="1" stop-color="white"/>
</linearGradient>
<linearGradient id="paint8_linear" x1="54584.7" y1="19974" x2="7308.59" y2="19974" gradientUnits="userSpaceOnUse">
<stop stop-color="white" stop-opacity="0"/>
<stop offset="0.99" stop-color="white"/>
</linearGradient>
<linearGradient id="paint9_linear" x1="220.193" y1="158.115" x2="221.242" y2="158.115" gradientUnits="userSpaceOnUse">
<stop stop-color="#68E1FD"/>
<stop offset="1" stop-color="#69B9EB"/>
</linearGradient>
<linearGradient id="paint10_linear" x1="532.958" y1="486.225" x2="533.746" y2="486.225" gradientUnits="userSpaceOnUse">
<stop stop-color="#68E1FD"/>
<stop offset="1" stop-color="#69B9EB"/>
</linearGradient>
<linearGradient id="paint11_linear" x1="326.529" y1="384.212" x2="326.614" y2="384.212" gradientUnits="userSpaceOnUse">
<stop stop-color="#68E1FD"/>
<stop offset="1" stop-color="#69B9EB"/>
</linearGradient>
<linearGradient id="paint12_linear" x1="5176.57" y1="41246.8" x2="8465.02" y2="30207.8" gradientUnits="userSpaceOnUse">
<stop stop-color="white" stop-opacity="0"/>
<stop offset="0.99" stop-color="white"/>
</linearGradient>
<linearGradient id="paint13_linear" x1="3335.65" y1="35086" x2="4491.79" y2="268.297" gradientUnits="userSpaceOnUse">
<stop stop-color="white" stop-opacity="0"/>
<stop offset="0.99" stop-color="white"/>
</linearGradient>
<linearGradient id="paint14_linear" x1="121.33" y1="137.91" x2="112.054" y2="137.143" gradientUnits="userSpaceOnUse">
<stop stop-color="#ECC4D7"/>
<stop offset="0.42" stop-color="#EFD4D1"/>
<stop offset="1" stop-color="#F2EAC9"/>
</linearGradient>
<linearGradient id="paint15_linear" x1="3928.56" y1="-3368.41" x2="3820.5" y2="-3328.18" gradientUnits="userSpaceOnUse">
<stop stop-color="#ECC4D7"/>
<stop offset="0.42" stop-color="#EFD4D1"/>
<stop offset="1" stop-color="#F2EAC9"/>
</linearGradient>
<linearGradient id="paint16_linear" x1="4682.35" y1="-5352.89" x2="4504.37" y2="-5354.8" gradientUnits="userSpaceOnUse">
<stop stop-color="#ECC4D7"/>
<stop offset="0.42" stop-color="#EFD4D1"/>
<stop offset="1" stop-color="#F2EAC9"/>
</linearGradient>
<linearGradient id="paint17_linear" x1="3659.2" y1="-3231.82" x2="3299.41" y2="-3049.38" gradientUnits="userSpaceOnUse">
<stop stop-color="#ECC4D7"/>
<stop offset="0.42" stop-color="#EFD4D1"/>
<stop offset="1" stop-color="#F2EAC9"/>
</linearGradient>
<linearGradient id="paint18_linear" x1="7537.28" y1="-9966.23" x2="6894.54" y2="-9898.73" gradientUnits="userSpaceOnUse">
<stop stop-color="#ECC4D7"/>
<stop offset="0.42" stop-color="#EFD4D1"/>
<stop offset="1" stop-color="#F2EAC9"/>
</linearGradient>
<linearGradient id="paint19_linear" x1="5444.71" y1="3510.79" x2="5961.87" y2="3510.79" gradientUnits="userSpaceOnUse">
<stop stop-color="#ECC4D7"/>
<stop offset="0.42" stop-color="#EFD4D1"/>
<stop offset="1" stop-color="#F2EAC9"/>
</linearGradient>
<linearGradient id="paint20_linear" x1="132.338" y1="74.0294" x2="135.602" y2="74.0294" gradientUnits="userSpaceOnUse">
<stop stop-color="#183866"/>
<stop offset="1" stop-color="#1A7FC1"/>
</linearGradient>
<linearGradient id="paint21_linear" x1="3141.62" y1="5158.87" x2="3370.04" y2="5158.87" gradientUnits="userSpaceOnUse">
<stop stop-color="#ECC4D7"/>
<stop offset="0.42" stop-color="#EFD4D1"/>
<stop offset="1" stop-color="#F2EAC9"/>
</linearGradient>
<linearGradient id="paint22_linear" x1="6455.29" y1="9670.43" x2="8408.05" y2="12614.4" gradientUnits="userSpaceOnUse">
<stop stop-color="white" stop-opacity="0"/>
<stop offset="0.99" stop-color="white"/>
</linearGradient>
<linearGradient id="paint23_linear" x1="2137.77" y1="3237.42" x2="2239.8" y2="3237.42" gradientUnits="userSpaceOnUse">
<stop stop-color="#ECC4D7"/>
<stop offset="0.42" stop-color="#EFD4D1"/>
<stop offset="1" stop-color="#F2EAC9"/>
</linearGradient>
</defs>
</svg>
